Coordinates
version=1
nRows=18
nColumns=22
inDegrees=yes

Units are S.I. units (second, meters, Newtons, ...)
If the header above contains a line with 'inDegrees', this indicates whether rotational values are in degrees (yes) or radians (no).

endheader
time	pelvis_tilt	pelvis_list	pelvis_rotation	pelvis_tx	pelvis_ty	pelvis_tz	hip_flexion_r	hip_adduction_r	hip_rotation_r	knee_angle_r	ankle_angle_r	subtalar_angle_r	hip_flexion_l	hip_adduction_l	hip_rotation_l	knee_angle_l	ankle_angle_l	subtalar_angle_l	lumbar_extension	lumbar_bending	lumbar_rotation
      4.19000000	      3.58291890	     -0.48814044	    -32.34055054	      0.78410762	      0.89849718	      0.49251557	      5.59334071	     -7.50324132	     -5.78006554	    -52.05424784	     15.51174850	    -10.28938572	     13.92322510	      2.50935039	    -12.21909829	    -21.96850642	      5.33022828	     -2.08370435	     -8.79221486	     -4.36192191	      4.22989545
      4.20000000	      3.62092599	     -0.58804279	    -32.34788791	      0.78945277	      0.89968011	      0.49428604	      5.99080411	     -7.69878563	     -6.38732329	    -50.87532812	     15.96799368	    -10.59229735	     13.20917951	      2.57806174	    -12.31009963	    -21.55957976	      5.54417423	     -2.16697195	     -8.92988774	     -4.30340468	      4.00491799
      4.21000000	      3.66105869	     -0.68531679	    -32.36139579	      0.79465580	      0.90076346	      0.49604118	      6.32869865	     -7.88536066	     -7.02783557	    -49.51661755	     16.41246130	    -10.81656265	     12.51193193	      2.64458338	    -12.41686493	    -21.16266988	      5.76062304	     -2.26868356	     -9.07790775	     -4.25428713	      3.79042918
      4.22000000	      3.71239656	     -0.80035608	    -32.37670894	      0.79973707	      0.90178656	      0.49778274	      6.57806863	     -8.05269432	     -7.72163291	    -47.98230262	     16.82405823	    -10.96645786	     11.81197014	      2.69754550	    -12.52888940	    -20.78268118	      5.97453826	     -2.39839515	     -9.25813294	     -4.19592494	      3.60682592
      4.23000000	      3.76139867	     -0.93411554	    -32.39973775	      0.80468408	      0.90274180	      0.49954669	      6.74941013	     -8.18113777	     -8.45206931	    -46.28702561	     17.20611386	    -11.01338488	     11.12529703	      2.72507811	    -12.63881356	    -20.42834002	      6.20258278	     -2.54263033	     -9.45536719	     -4.12422187	      3.42886925
      4.24000000	      3.80477123	     -1.09288101	    -32.42172892	      0.80951669	      0.90364297	      0.50131478	      6.83399348	     -8.25696684	     -9.21284963	    -44.43674381	     17.55339735	    -10.95857339	     10.45511842	      2.72138928	    -12.73867226	    -20.10710086	      6.45247399	     -2.69006846	     -9.67053895	     -4.02237484	      3.24993088
      4.25000000	      3.85037341	     -1.27888213	    -32.44987458	      0.81423452	      0.90451672	      0.50311809	      6.82614197	     -8.28575362	    -10.01812422	    -42.45267500	     17.83717640	    -10.79927668	      9.79328441	      2.68784873	    -12.81800954	    -19.82334297	      6.69491744	     -2.85358630	     -9.90747498	     -3.90259817	      3.11998992
      4.26000000	      3.87601110	     -1.48478430	    -32.48071985	      0.81883161	      0.90533302	      0.50496299	      6.75689919	     -8.24310618	    -10.82659277	    -40.36109875	     18.07168594	    -10.55200692	      9.16655663	      2.61520684	    -12.88242643	    -19.58155272	      6.96001562	     -2.99539745	    -10.13928359	     -3.75191724	      2.98484115
      4.27000000	      3.89543294	     -1.70295310	    -32.51246403	      0.82331143	      0.90611269	      0.50683086	      6.62836996	     -8.14231503	    -11.62603522	    -38.19149070	     18.25079264	    -10.20484437	      8.56500962	      2.52063612	    -12.93124484	    -19.37641007	      7.21841518	     -3.12263641	    -10.37358919	     -3.58454537	      2.86425557
      4.28000000	      3.89836892	     -1.92405803	    -32.54990835	      0.82763690	      0.90683445	      0.50874522	      6.47523101	     -7.97711162	    -12.38402857	    -35.99041053	     18.37636839	     -9.76574565	      8.00632063	      2.40212193	    -12.96724939	    -19.21186360	      7.46895780	     -3.22418778	    -10.59494988	     -3.41097271	      2.76286737
      4.29000000	      3.84625983	     -2.13893870	    -32.59586630	      0.83176886	      0.90743775	      0.51068602	      6.36014109	     -7.71179999	    -13.00221271	    -33.79619688	     18.43801615	     -9.36651893	      7.55024115	      2.23426811	    -13.04199339	    -19.12126679	      7.74778617	     -3.28434536	    -10.76244090	     -3.20905672	      2.64017951
      4.30000000	      3.82433751	     -2.31433512	    -32.65687308	      0.83577098	      0.90801155	      0.51266510	      6.24705552	     -7.46250509	    -13.53630439	    -31.67978802	     18.45382681	     -8.58221228	      7.07839434	      2.12317396	    -13.07479512	    -18.99496876	      7.93341129	     -3.34833071	    -10.93151786	     -3.07470959	      2.59524431
      4.31000000	      3.69493550	     -2.47384890	    -32.73616066	      0.83950649	      0.90837573	      0.51465447	      6.27171738	     -7.07539941	    -13.78263382	    -29.66237253	     18.38733892	     -8.18965961	      6.77913319	      1.93218265	    -13.17714642	    -18.96992351	      8.22441177	     -3.36973666	    -10.99579872	     -2.88968743	      2.55635342
      4.32000000	      3.60404664	     -2.59674845	    -32.82217525	      0.84310825	      0.90872421	      0.51666548	      6.31041494	     -6.70526133	    -13.84818312	    -27.79224885	     18.29454436	     -7.32520651	      6.44080888	      1.80426526	    -13.21811859	    -18.88131280	      8.46087662	     -3.38720858	    -11.07310997	     -2.77458037	      2.55755279
      4.33000000	      3.43021095	     -2.66369244	    -32.94984395	      0.84644863	      0.90885769	      0.51866689	      6.52511400	     -6.27233054	    -13.53230490	    -26.11530371	     18.14259128	     -6.49145849	      6.26079819	      1.65029547	    -13.36121497	    -18.86630949	      8.69822174	     -3.39051658	    -11.04373247	     -2.66010245	      2.57360496
      4.34000000	      3.22831885	     -2.69785551	    -33.10003767	      0.84960653	      0.90888276	      0.52066406	      6.83029090	     -5.81136812	    -12.90607219	    -24.62935572	     17.95473145	     -5.68007868	      6.13687004	      1.49799660	    -13.53500886	    -18.85817536	      8.94211766	     -3.37741230	    -10.96928253	     -2.56215190	      2.62603038
      4.35000000	      3.00283790	     -2.70458905	    -33.26141076	      0.85262828	      0.90882863	      0.52265422	      7.20169740	     -5.33463773	    -12.01484999	    -23.32793673	     17.70565995	     -4.79579597	      6.05008014	      1.35238435	    -13.70789493	    -18.83731391	      9.15562983	     -3.34697418	    -10.85294729	     -2.47636251	      2.70301375
      4.36000000	      2.77109434	     -2.69845811	    -33.43580524	      0.85550469	      0.90871846	      0.52463367	      7.60754208	     -4.84471306	    -10.85701019	    -22.20804699	     17.44311554	     -3.92369689	      5.98918996	      1.20488386	    -13.90341365	    -18.82923362	      9.38507447	     -3.29472013	    -10.72324571	     -2.39787627	      2.78640756
